<svg width="20" height="21" viewBox="0 0 20 21" fill="none" xmlns="http://www.w3.org/2000/svg">
<g id="eye-off" clip-path="url(#clip0_15_138)">
<path id="Vector" d="M14.95 15.45C13.5255 16.5358 11.791 17.1374 10 17.1667C4.16671 17.1667 0.833374 10.5 0.833374 10.5C1.86995 8.56825 3.30765 6.88051 5.05004 5.55M8.25004 4.03333C8.82365 3.89907 9.41093 3.83195 10 3.83333C15.8334 3.83333 19.1667 10.5 19.1667 10.5C18.6609 11.4463 18.0576 12.3373 17.3667 13.1583M11.7667 12.2667C11.5378 12.5123 11.2618 12.7093 10.9552 12.8459C10.6485 12.9826 10.3175 13.056 9.98178 13.062C9.64611 13.0679 9.31268 13.0061 9.00138 12.8804C8.69009 12.7547 8.40731 12.5675 8.16991 12.3301C7.93252 12.0927 7.74537 11.81 7.61963 11.4987C7.4939 11.1874 7.43215 10.8539 7.43807 10.5183C7.44399 10.1826 7.51746 9.85154 7.6541 9.54487C7.79074 9.23821 7.98775 8.96221 8.23337 8.73333" stroke="#94A3B8" stroke-width="1.5" stroke-linecap="round" stroke-linejoin="round"/>
<path id="Vector_2" d="M0.833374 1.33331L19.1667 19.6666" stroke="#94A3B8" stroke-width="1.5" stroke-linecap="round" stroke-linejoin="round"/>
</g>
<defs>
<clipPath id="clip0_15_138">
<rect width="20" height="20" fill="white" transform="translate(0 0.5)"/>
</clipPath>
</defs>
</svg>
